<?xml version="1.0" encoding="utf-8"?>
<!-- Generator: Adobe Illustrator 25.1.0, SVG Export Plug-In . SVG Version: 6.00 Build 0)  -->
<svg version="1.1" id="レイヤー_1" xmlns="http://www.w3.org/2000/svg" xmlns:xlink="http://www.w3.org/1999/xlink" x="0px"
	 y="0px" viewBox="0 0 60 60" style="enable-background:new 0 0 60 60;" xml:space="preserve">
<style type="text/css">
	.st0{fill:#FFCA02;}
	.st1{fill:#080002;}
</style>
<g>
	<path class="st0" d="M56.23,40.95l-17.67-31c-2.16-3.79-5.21-5.88-8.58-5.88c-3.33,0-6.46,2.15-8.59,5.89L3.76,40.94
		c-2.12,3.73-2.37,7.54-0.69,10.43c1.69,2.9,5.12,4.56,9.41,4.56h35.04c4.29,0,7.72-1.66,9.41-4.56
		C58.61,48.48,58.36,44.68,56.23,40.95z M30.01,16.21c1.43,0,3.56,1.2,3.33,4.11l-0.83,14.8c-0.07,1.32-1.14,2.33-2.48,2.33
		c-1.34,0-2.31-1.21-2.39-2.4l-1-14.86C26.54,17.34,28.41,16.21,30.01,16.21z M29.99,47.43c-2.02,0-3.66-1.64-3.66-3.66
		c0-2.02,1.64-3.66,3.66-3.66c2.02,0,3.66,1.64,3.66,3.66C33.65,45.79,32.01,47.43,29.99,47.43z"/>
	<g>
		<path class="st1" d="M29.99,40.11c-2.02,0-3.66,1.64-3.66,3.66c0,2.02,1.64,3.66,3.66,3.66c2.02,0,3.66-1.64,3.66-3.66
			C33.65,41.75,32.01,40.11,29.99,40.11z"/>
		<path class="st1" d="M27.63,35.05c0.08,1.19,1.06,2.4,2.39,2.4c1.34,0,2.4-1.01,2.48-2.33l0.83-14.8c0.23-2.9-1.89-4.11-3.33-4.11
			c-1.6,0-3.47,1.13-3.38,3.98L27.63,35.05z"/>
	</g>
</g>
</svg>
