<?xml version="1.0" encoding="utf-8"?>
<!-- Generator: Adobe Illustrator 25.2.0, SVG Export Plug-In . SVG Version: 6.00 Build 0)  -->
<svg version="1.1" id="レイヤー_1" xmlns="http://www.w3.org/2000/svg" xmlns:xlink="http://www.w3.org/1999/xlink" x="0px"
	 y="0px" viewBox="0 0 224.72 148" style="enable-background:new 0 0 224.72 148;" xml:space="preserve">
<style type="text/css">
	.st0{fill:#E97327;}
	.st1{fill:#FFFFFF;}
</style>
<g>
	<path class="st0" d="M206.59,117.5c0,6.38-5.22,11.6-11.6,11.6H77.82c-6.38,0-15.64-3.31-20.58-7.35l-35.41-40.4
		c-4.94-4.04-4.94-10.66,0-14.7l35.41-40.4c4.94-4.04,14.2-7.35,20.58-7.35h117.16c6.38,0,11.6,5.22,11.6,11.6V117.5z"/>
	<g>
		<path class="st1" d="M126.78,79.75h-14.76c2.45,6.26,7.71,9.72,16.12,11c-0.61,0.61-1.4,1.8-1.8,2.63
			c-8.59-1.67-13.93-5.43-16.74-12.31c-1.8,6-5.74,10.12-15.46,12.4c-0.26-0.75-1.01-1.88-1.58-2.45
			c9.11-1.97,12.75-5.61,14.33-11.26H94.45c-0.7,4.51-2.19,9.16-5.04,12.79c-0.53-0.48-1.8-1.31-2.58-1.62
			c4.82-6,5.39-14.37,5.39-20.46v-9.16h31.59v10.34h-14.11v0.04l2.19,0.13c0,0.31-0.35,0.53-0.92,0.61
			c-0.13,1.67-0.31,3.2-0.53,4.69h16.34V79.75z M126.99,55.13v2.72H88.36v-2.72H126.99z M95.15,71.65
			c-0.04,1.71-0.13,3.55-0.35,5.48h12.66c0.31-1.67,0.48-3.5,0.61-5.48H95.15z M120.91,63.72H95.15v5.52h25.76V63.72z"/>
		<path class="st1" d="M146,71.87c2.89-1.49,7.4-2.54,10.86-2.54c6.97,0,11.35,4.07,11.35,10.51c0,7.93-6.97,12.31-15.77,12.31
			c-5.69,0-9.59-2.28-9.59-6.13c0-3.24,3.2-5.87,7.18-5.87c4.95,0,8.28,3.94,8.94,7.93c3.5-1.31,6.05-4.12,6.05-8.19
			c0-4.73-3.5-7.75-9.02-7.75c-6.57,0-13.01,2.94-15.9,5.74c-1.31,1.23-3.02,3.07-4.21,4.42l-2.23-2.23
			c3.94-4.12,16.47-16.08,22.43-21.64c-2.54,0.35-11.3,0.7-16.3,0.88c-0.13,0.31-0.57,0.57-0.92,0.66l-0.35-3.72
			c5.91-0.04,17.22-0.48,20.42-0.96l0.66-0.31l2.32,2.85c-0.22,0.18-0.61,0.35-1.05,0.39c-3.11,2.54-11.43,10.34-14.85,13.62V71.87z
			 M152.05,89.39c1.31,0,2.85-0.18,3.99-0.44c-0.48-3.37-2.98-6.22-6.22-6.22c-2.28,0-4.29,1.23-4.29,3.24
			C145.52,88.65,149.15,89.39,152.05,89.39z"/>
	</g>
</g>
</svg>
