<?xml version="1.0" encoding="utf-8"?>
<!-- Generator: Adobe Illustrator 25.1.0, SVG Export Plug-In . SVG Version: 6.00 Build 0)  -->
<svg version="1.1" id="レイヤー_1" xmlns="http://www.w3.org/2000/svg" xmlns:xlink="http://www.w3.org/1999/xlink" x="0px"
	 y="0px" viewBox="0 0 100 100" style="enable-background:new 0 0 100 100;" xml:space="preserve">
<style type="text/css">
	.st0{fill:#FFFFFF;}
</style>
<path class="st0" d="M50,13.2c5.03,0,9.48,2.03,12.77,5.32c3.29,3.29,5.32,7.83,5.32,12.77c0,5.03-2.03,9.58-5.32,12.86
	c-1.45,1.45-3.19,2.71-5.13,3.58c5.13,1.45,9.77,4.16,13.44,7.83c5.42,5.42,8.8,12.86,8.8,21.09v3.58c0,1.84-0.77,3.48-1.93,4.64
	c-1.26,1.26-2.9,1.93-4.64,1.93H26.69c-1.84,0-3.48-0.68-4.64-1.93l-0.19-0.1c-1.06-1.16-1.74-2.8-1.74-4.55v-3.58
	c0-8.22,3.29-15.67,8.71-21.09c3.68-3.68,8.32-6.38,13.44-7.83c-1.93-0.87-3.68-2.13-5.13-3.58c-3.29-3.29-5.32-7.83-5.32-12.86
	c0-4.93,2.03-9.48,5.32-12.77C40.42,15.23,44.97,13.2,50,13.2L50,13.2z M68.28,58.37c-4.74-4.74-11.22-7.64-18.28-7.64
	c-7.16,0-13.64,2.9-18.28,7.64c-4.74,4.64-7.64,11.12-7.64,18.28v3.58c0,0.68,0.29,1.35,0.68,1.74l0.1,0.1
	c0.48,0.48,1.06,0.77,1.84,0.77h46.62c0.68,0,1.35-0.29,1.84-0.77c0.48-0.48,0.77-1.06,0.77-1.84v-3.58
	C75.92,69.49,72.92,63.01,68.28,58.37L68.28,58.37z M59.96,21.32c-2.51-2.61-6.09-4.16-9.96-4.16c-3.97,0-7.45,1.55-10.06,4.16
	c-2.52,2.51-4.16,6.09-4.16,9.96c0,3.97,1.64,7.45,4.16,10.06c2.61,2.51,6.09,4.16,10.06,4.16c3.87,0,7.45-1.64,9.96-4.16
	c2.61-2.61,4.16-6.09,4.16-10.06C64.12,27.41,62.57,23.84,59.96,21.32L59.96,21.32z"/>
</svg>
