<?xml version="1.0" encoding="utf-8"?>
<!-- Generator: Adobe Illustrator 25.1.0, SVG Export Plug-In . SVG Version: 6.00 Build 0)  -->
<svg version="1.1" id="レイヤー_1" xmlns="http://www.w3.org/2000/svg" xmlns:xlink="http://www.w3.org/1999/xlink" x="0px"
	 y="0px" viewBox="0 0 100 100" style="enable-background:new 0 0 100 100;" xml:space="preserve">
<style type="text/css">
	.st0{fill:#FFFFFF;}
</style>
<path class="st0" d="M50.01,16.05L50.01,16.05L50.01,16.05h0.19h0.1l0,0l0,0l0,0l0,0h0.1l0,0l0,0h0.1l0,0l0,0l0,0h0.1
	c0.39,0,0.77,0,1.26,0.1v-0.1c0-0.48-0.29-0.97-0.58-1.26l0,0c-0.29-0.39-0.77-0.58-1.26-0.58c-0.58,0-0.97,0.19-1.35,0.58
	c-0.29,0.29-0.48,0.77-0.48,1.26v0.1c0.39-0.1,0.77-0.1,1.26-0.1l0,0l0,0h0.1l0,0l0,0l0,0h0.1l0,0l0,0l0,0l0,0h0.1l0,0h0.19l0,0
	H50.01z M55.72,16.82c4.84,1.26,9.09,4.06,12.48,7.83c4.64,5.32,7.54,12.57,7.54,20.6c0.1,18.28,2.61,21.38,5.22,24.37
	c1.55,1.84,3,3.58,4.26,7.64c0.29,1.06-0.39,2.13-1.35,2.42c-0.19,0.1-0.39,0.1-0.58,0.1l0,0H59.98c0,2.8-1.16,5.32-2.9,7.06
	c-1.84,1.84-4.35,2.9-7.06,2.9c-2.81,0-5.22-1.06-7.06-2.9l0,0c-1.84-1.74-2.9-4.26-2.9-7.06H16.74c-1.16,0-2.03-0.87-2.03-1.93
	c0-0.29,0-0.48,0.1-0.77c1.16-3.87,2.71-5.71,4.26-7.45c2.51-3,5.03-6.09,5.13-24.37c0.1-8.03,2.9-15.28,7.54-20.6
	c3.39-3.77,7.64-6.58,12.48-7.83c0-0.29,0-0.48,0-0.77c0-1.64,0.58-3.1,1.64-4.06c1.06-1.06,2.51-1.74,4.16-1.74
	c1.55,0,3,0.68,4.06,1.74l0,0c1.06,0.97,1.74,2.42,1.74,4.06C55.82,16.34,55.82,16.53,55.72,16.82L55.72,16.82z M55.91,79.79h-11.9
	c0,1.64,0.68,3.19,1.74,4.26l0,0c1.06,1.06,2.61,1.74,4.26,1.74c1.64,0,3.1-0.68,4.16-1.74C55.33,82.98,55.91,81.44,55.91,79.79
	L55.91,79.79z M50.01,20.01h-0.1l0,0h-0.19l0,0l0,0c-5.8,0.1-11.12,2.9-14.99,7.35c-3.97,4.55-6.48,10.83-6.58,17.89
	c-0.1,19.73-3.1,23.31-6.09,26.89c-0.87,1.06-1.74,2.13-2.51,3.68h21.18H59.2h21.18c-0.77-1.55-1.64-2.61-2.51-3.68
	c-3-3.58-6-7.16-6.09-26.89c0-7.06-2.51-13.35-6.58-17.89c-3.87-4.45-9.09-7.25-14.9-7.35l0,0h-0.1H50.01L50.01,20.01L50.01,20.01z"
	/>
</svg>
