<?xml version="1.0" encoding="utf-8"?>
<!-- Generator: Adobe Illustrator 25.1.0, SVG Export Plug-In . SVG Version: 6.00 Build 0)  -->
<svg version="1.1" id="レイヤー_1" xmlns="http://www.w3.org/2000/svg" xmlns:xlink="http://www.w3.org/1999/xlink" x="0px"
	 y="0px" viewBox="0 0 100 100" style="enable-background:new 0 0 100 100;" xml:space="preserve">
<style type="text/css">
	.st0{fill:#FFFFFF;}
</style>
<path class="st0" d="M84.1,41.25L84.19,16l-25.54-0.19L16.68,58.17l25.05,25.15L84.1,41.25z M72,20.26c2.13,0,4.06,0.87,5.42,2.22
	l0,0c1.35,1.35,2.22,3.29,2.22,5.42c0,2.13-0.87,3.97-2.22,5.42c-1.35,1.35-3.29,2.22-5.42,2.22c-2.03,0-3.97-0.87-5.32-2.22
	c-1.45-1.45-2.32-3.29-2.32-5.42c0-2.13,0.87-4.06,2.32-5.42C68.04,21.13,69.97,20.26,72,20.26L72,20.26z M74.62,25.29
	c-0.68-0.68-1.55-1.06-2.61-1.06c-0.97,0-1.93,0.39-2.51,1.06c-0.68,0.68-1.06,1.55-1.06,2.61c0,0.97,0.39,1.93,1.06,2.51
	c0.58,0.68,1.55,1.06,2.51,1.06c1.06,0,1.93-0.39,2.61-1.06c0.68-0.58,1.06-1.55,1.06-2.51C75.68,26.83,75.29,25.96,74.62,25.29
	L74.62,25.29z M88.16,14.07l-0.1,27.86c0,0.58-0.19,1.16-0.58,1.55l-44.2,44.01l-0.1,0.1c-0.77,0.77-2.03,0.77-2.8,0L12.42,59.62
	l0,0c-0.77-0.77-0.77-2.03,0-2.8l44.01-44.4c0.39-0.29,0.87-0.58,1.45-0.58l28.34,0.19C87.29,12.04,88.16,12.91,88.16,14.07
	L88.16,14.07z"/>
</svg>
